# xmcd
#
# Track frame offsets: 
#        150
#        35543
#        59418
#        97566
#        125320
#        175672
#        202104
#        237117
#        267628
#        287134
#
# Disc length: 4104 seconds
#
# Revision: 0
# Processed by: cddbd v1.5.2PL0 Copyright (c) Steve Scherf et al.
# Submitted via: ExactAudioCopy v0.95a5
#
DISCID=8a10060a
DTITLE=Robben Ford - Soul on Ten
DYEAR=2009
DGENRE=Blues
TTITLE0=Supernatural
TTITLE1=Indfianola
TTITLE2=There"ll Never Be Another You
TTITLE3=Spoonful
TTITLE4=Nothi' to Nobody
TTITLE5=Please Set a Date/You Don't Have To Go
TTITLE6=Earthquake
TTITLE7=How Deep in The Blues(Do You Want To Go)
TTITLE8=Don't Worry Bout Me
TTITLE9=Thoughtless
EXTD=
EXTT0=
EXTT1=
EXTT2=
EXTT3=
EXTT4=
EXTT5=
EXTT6=
EXTT7=
EXTT8=
EXTT9=
PLAYORDER=
